<svg width="27" height="28" viewBox="0 0 27 28" fill="none" xmlns="http://www.w3.org/2000/svg">
<g id="ig">
<path id="Vector" d="M18.1058 2H8.40969C4.7338 2 1.75391 4.97989 1.75391 8.65578V19.3442C1.75391 23.0201 4.7338 26 8.40969 26H18.1058C21.7817 26 24.7615 23.0201 24.7615 19.3442V8.65578C24.7615 4.97989 21.7817 2 18.1058 2Z" stroke="black" stroke-width="3" stroke-linecap="round"/>
<path id="Vector_2" d="M13.2577 19.8625C16.4972 19.8625 19.1233 17.2364 19.1233 13.9968C19.1233 10.7573 16.4972 8.13116 13.2577 8.13116C10.0181 8.13116 7.39197 10.7573 7.39197 13.9968C7.39197 17.2364 10.0181 19.8625 13.2577 19.8625Z" stroke="black" stroke-width="3" stroke-linecap="round"/>
<path id="Vector_3" d="M20.2801 7.08192C20.7409 7.08192 21.1144 6.70838 21.1144 6.24758C21.1144 5.78679 20.7409 5.41324 20.2801 5.41324C19.8193 5.41324 19.4457 5.78679 19.4457 6.24758C19.4457 6.70838 19.8193 7.08192 20.2801 7.08192Z" stroke="black" stroke-width="3"/>
</g>
</svg>
