<svg width="32" height="28" viewBox="0 0 32 28" fill="none" xmlns="http://www.w3.org/2000/svg">
<path id="Twitter" d="M29.0799 2.56254C29.0799 2.50441 29.0276 2.46953 28.9811 2.51022C28.0685 3.30078 25.8654 3.94021 25.5863 3.96927C25.5781 3.97296 25.5692 3.97487 25.5602 3.97487C25.5512 3.97487 25.5422 3.97296 25.534 3.96927C23.918 1.38833 20.1919 2.08588 20.1919 2.08588C14.7161 3.24847 15.3207 8.78239 15.4253 9.36369C15.4253 9.39275 15.4253 9.416 15.373 9.416C9.28102 9.71828 3.96218 4.05647 3.35763 3.38798C3.35163 3.38068 3.34409 3.37479 3.33555 3.37076C3.327 3.36672 3.31767 3.36462 3.30822 3.36462C3.29877 3.36462 3.28944 3.36672 3.28089 3.37076C3.27235 3.37479 3.26481 3.38068 3.25881 3.38798C2.57517 4.65535 2.35839 6.12258 2.64631 7.5335C2.93423 8.94442 3.70856 10.2094 4.83412 11.1076C4.84377 11.1132 4.85177 11.1213 4.85733 11.131C4.8629 11.1406 4.86583 11.1516 4.86583 11.1628C4.86583 11.174 4.8629 11.1849 4.85733 11.1946C4.85177 11.2043 4.84377 11.2124 4.83412 11.218C4.04021 11.1932 3.25532 11.0421 2.50894 10.7704C2.47406 10.7704 2.43337 10.7704 2.43337 10.8285C2.51475 14.4326 6.04902 16.0602 6.86865 16.4032C6.88028 16.407 6.8904 16.4144 6.89758 16.4243C6.90476 16.4342 6.90863 16.4461 6.90863 16.4584C6.90863 16.4706 6.90476 16.4826 6.89758 16.4925C6.8904 16.5024 6.88028 16.5098 6.86865 16.5136C6.13414 16.6736 5.38032 16.7265 4.63066 16.6706C4.62058 16.6702 4.61054 16.6722 4.60138 16.6764C4.59221 16.6807 4.58419 16.687 4.57795 16.6949C4.57171 16.7029 4.56744 16.7122 4.56549 16.7221C4.56354 16.732 4.56396 16.7422 4.56672 16.7519C5.30497 19.5305 8.92643 20.6931 9.57748 20.8849C9.58838 20.8873 9.59849 20.8924 9.60681 20.8998C9.61512 20.9072 9.62135 20.9167 9.62488 20.9273C9.6284 20.9378 9.6291 20.9492 9.6269 20.9601C9.62471 20.971 9.61969 20.9812 9.61236 20.9896C7.37437 22.9892 2.96235 23.5182 2.05553 23.6112C2.04348 23.6128 2.03214 23.6178 2.02283 23.6256C2.01352 23.6334 2.00663 23.6438 2.00297 23.6553C1.99931 23.6669 1.99903 23.6793 2.00216 23.6911C2.00529 23.7028 2.01171 23.7134 2.02065 23.7217C5.40379 26.0468 14.2627 27.9767 21.029 22.1929C23.0293 20.4495 24.6099 18.2767 25.6527 15.8368C26.6955 13.3969 27.1736 10.7529 27.0512 8.10228C27.0513 8.0926 27.054 8.08312 27.0591 8.07491C27.0643 8.0667 27.0716 8.06008 27.0803 8.05577C28.2954 7.34208 29.3079 6.32957 30.0216 5.11442C30.0216 5.05629 30.0216 5.02142 29.9344 5.03885C29.3459 5.24561 28.7106 5.2799 28.1033 5.13767C28.1033 5.13767 29.0973 3.41704 29.0799 2.56254Z" stroke="black" stroke-width="3" stroke-linecap="round"/>
</svg>
